<svg xmlns="http://www.w3.org/2000/svg" width="888" height="200" viewBox="0 0 888 200">
  <path fill="none" d="M269.985 145.512h348.031v32.705H269.985z"/>
  <path fill="#88C0D0" d="M272.415 145.513h1.35l21.959 31.004h.09v-31.004h.9v32.129h-1.35l-21.959-31.004h-.09v31.004h-.9v-32.129zm38.429 8.46c6.75 0 10.395 5.805 10.395 12.104 0 6.345-3.645 12.104-10.44 12.104-6.75 0-10.395-5.76-10.395-12.104 0-6.3 3.645-12.104 10.44-12.104zm0 23.308c6.165 0 9.495-5.354 9.495-11.204 0-5.76-3.33-11.205-9.495-11.205-6.255 0-9.54 5.445-9.54 11.205.001 5.85 3.285 11.204 9.54 11.204zm15.031.361h-.9v-23.129h.9v5.715h.09c.855-3.42 3.555-6.435 9.09-6.255v.899c-6.345-.314-9.18 4.636-9.18 9.675v13.095zm28.753-32.129h.9v32.129h-.9v-6.479h-.09c-1.17 4.05-4.545 7.02-9.27 7.02-6.12 0-9.855-5.085-9.855-12.06 0-6.479 3.465-12.149 9.855-12.149 4.905 0 8.189 2.835 9.27 7.02h.09v-15.481zm-9.359 9.359c-6.345 0-8.955 5.896-8.955 11.25 0 5.939 2.97 11.159 8.955 11.159 5.939 0 9.359-5.175 9.359-11.159 0-7.154-3.735-11.25-9.359-11.25z"/>
  <path fill="#2E3440" d="M375.508 167.067c-.135 6.614 4.635 8.64 10.485 8.64 3.375 0 8.504-1.846 8.504-6.525 0-3.645-3.645-5.085-6.615-5.805l-7.155-1.755c-3.78-.944-7.245-2.745-7.245-7.739 0-3.15 2.025-9.045 11.07-9.045 6.345 0 11.924 3.42 11.879 9.989h-3.06c-.18-4.904-4.229-7.379-8.774-7.379-4.185 0-8.055 1.619-8.055 6.39 0 3.015 2.25 4.274 4.86 4.904l7.83 1.936c4.545 1.215 8.325 3.194 8.325 8.459 0 2.205-.9 9.18-12.285 9.18-7.604 0-13.185-3.42-12.824-11.249h3.06zm45.179 10.575h-2.609v-4.185h-.09c-1.485 3.104-4.545 4.859-8.01 4.859-5.85 0-8.145-3.42-8.145-8.819v-15.074h2.835v15.119c.135 4.185 1.71 6.39 6.209 6.39 4.86 0 6.975-4.59 6.975-9.314v-12.194h2.835v23.218zm5.355-32.129h2.835v13.319h.09c1.215-3.329 4.59-5.084 8.055-5.084 7.064 0 10.439 5.714 10.439 12.284 0 6.569-3.375 12.284-10.439 12.284-3.735 0-6.975-1.935-8.28-5.085h-.09v4.41h-2.609v-32.128zm10.979 10.62c-6.03 0-8.145 5.084-8.145 9.899 0 4.814 2.114 9.899 8.145 9.899 5.399 0 7.604-5.085 7.604-9.899.001-4.815-2.204-9.899-7.604-9.899zm14.895-10.62h2.835v32.129h-2.835v-32.129zm8.325 0h2.835v4.545h-2.835v-4.545zm0 8.91h2.835v23.219h-2.835v-23.219zm8.28 0h2.609v3.914h.135c1.485-2.789 3.915-4.589 7.605-4.589 3.06 0 5.805 1.484 6.659 4.544 1.396-3.06 4.32-4.544 7.38-4.544 5.085 0 7.694 2.654 7.694 8.145v15.749h-2.835v-15.614c0-3.825-1.439-5.895-5.489-5.895-4.905 0-6.3 4.05-6.3 8.369v13.14h-2.835v-15.749c.045-3.15-1.26-5.76-4.859-5.76-4.905 0-6.885 3.689-6.93 8.549v12.96h-2.835v-23.219zm39.15 12.374c.045 4.14 2.204 9.135 7.649 9.135 4.14 0 6.39-2.43 7.29-5.939h2.834c-1.215 5.265-4.274 8.324-10.124 8.324-7.38 0-10.484-5.67-10.484-12.284 0-6.12 3.104-12.284 10.484-12.284 7.47 0 10.439 6.524 10.215 13.049h-17.864zm15.029-2.385c-.136-4.274-2.79-8.279-7.38-8.279-4.635 0-7.2 4.05-7.649 8.279H522.7zm16.245-18.899h25.469v2.61h-11.205v29.519h-3.06v-29.519h-11.204v-2.61zm24.615 21.284c.045 4.14 2.204 9.135 7.649 9.135 4.14 0 6.39-2.43 7.29-5.939h2.834c-1.215 5.265-4.274 8.324-10.124 8.324-7.38 0-10.484-5.67-10.484-12.284 0-6.12 3.104-12.284 10.484-12.284 7.47 0 10.439 6.524 10.215 13.049H563.56zm15.029-2.385c-.136-4.274-2.79-8.279-7.38-8.279-4.635 0-7.2 4.05-7.649 8.279h15.029zm13.005 1.17l-8.325-11.159h3.555l6.615 8.819 6.479-8.819h3.555l-8.369 11.114 9.044 12.104h-3.6l-7.289-9.765-7.155 9.765h-3.51l9-12.059zm19.8-11.159h4.725v2.385h-4.725v15.659c0 1.845.27 2.925 2.294 3.06.811 0 1.62-.045 2.431-.135v2.43c-.855 0-1.665.09-2.521.09-3.779 0-5.085-1.26-5.039-5.22v-15.884h-4.05v-2.385h4.05v-6.975h2.835v6.975z"/>
  <g fill="#2E3440">
    <path d="M466.561 127.512l-43.392-55.545v-15.41l48.091 62.17h25.844V31.182h-43.465l-9.396-9.399H506.5v105.729z"/>
    <path d="M421.44 21.783l43.394 55.541v15.41l-48.092-62.168h-25.843v87.545h43.464l9.4 9.401h-62.262V21.783z"/>
  </g>
</svg>
